<svg width="66" height="54" viewBox="0 0 66 54" fill="none" xmlns="http://www.w3.org/2000/svg">
<g clip-path="url(#clip0_1_268)">
<g filter="url(#filter0_dii_1_268)">
<path d="M50.7119 1H14.0452C9.9951 1 6.71185 4.19797 6.71185 8.14286V43.8571C6.71185 47.802 9.9951 51 14.0452 51H50.7119C54.762 51 58.0452 47.802 58.0452 43.8571V8.14286C58.0452 4.19797 54.762 1 50.7119 1Z" fill="#2B2B2B"/>
</g>
</g>
<path d="M28.3203 25.3359C28.3203 29.2422 28.6406 32.2344 29.2812 34.3125C29.9219 36.375 31.2344 37.4062 33.2188 37.4062C35.2031 37.4062 36.5 36.375 37.1094 34.3125C37.7344 32.2344 38.0469 29.2422 38.0469 25.3359C38.0469 21.2422 37.7344 18.2109 37.1094 16.2422C36.5 14.2734 35.2031 13.2891 33.2188 13.2891C31.2344 13.2891 29.9219 14.2734 29.2812 16.2422C28.6406 18.2109 28.3203 21.2422 28.3203 25.3359ZM33.2188 7.78125C37.5469 7.78125 40.5781 9.30469 42.3125 12.3516C44.0625 15.3984 44.9375 19.7266 44.9375 25.3359C44.9375 30.9453 44.0625 35.2656 42.3125 38.2969C40.5781 41.3281 37.5469 42.8438 33.2188 42.8438C28.8906 42.8438 25.8516 41.3281 24.1016 38.2969C22.3672 35.2656 21.5 30.9453 21.5 25.3359C21.5 19.7266 22.3672 15.3984 24.1016 12.3516C25.8516 9.30469 28.8906 7.78125 33.2188 7.78125Z" fill="white"/>
<defs>
<filter id="filter0_dii_1_268" x="2.71185" y="-2" width="59.3333" height="61" filterUnits="userSpaceOnUse" color-interpolation-filters="sRGB">
<feFlood flood-opacity="0" result="BackgroundImageFix"/>
<feColorMatrix in="SourceAlpha" type="matrix" values="0 0 0 0 0 0 0 0 0 0 0 0 0 0 0 0 0 0 127 0" result="hardAlpha"/>
<feOffset dy="4"/>
<feGaussianBlur stdDeviation="2"/>
<feComposite in2="hardAlpha" operator="out"/>
<feColorMatrix type="matrix" values="0 0 0 0 0 0 0 0 0 0 0 0 0 0 0 0 0 0 0.25 0"/>
<feBlend mode="normal" in2="BackgroundImageFix" result="effect1_dropShadow_1_268"/>
<feBlend mode="normal" in="SourceGraphic" in2="effect1_dropShadow_1_268" result="shape"/>
<feColorMatrix in="SourceAlpha" type="matrix" values="0 0 0 0 0 0 0 0 0 0 0 0 0 0 0 0 0 0 127 0" result="hardAlpha"/>
<feOffset dx="3" dy="-3"/>
<feGaussianBlur stdDeviation="2.4"/>
<feComposite in2="hardAlpha" operator="arithmetic" k2="-1" k3="1"/>
<feColorMatrix type="matrix" values="0 0 0 0 0 0 0 0 0 0 0 0 0 0 0 0 0 0 0.71 0"/>
<feBlend mode="normal" in2="shape" result="effect2_innerShadow_1_268"/>
<feColorMatrix in="SourceAlpha" type="matrix" values="0 0 0 0 0 0 0 0 0 0 0 0 0 0 0 0 0 0 127 0" result="hardAlpha"/>
<feOffset dx="-1" dy="2"/>
<feGaussianBlur stdDeviation="2"/>
<feComposite in2="hardAlpha" operator="arithmetic" k2="-1" k3="1"/>
<feColorMatrix type="matrix" values="0 0 0 0 1 0 0 0 0 1 0 0 0 0 1 0 0 0 0.25 0"/>
<feBlend mode="normal" in2="effect2_innerShadow_1_268" result="effect3_innerShadow_1_268"/>
</filter>
<clipPath id="clip0_1_268">
<rect width="66" height="50" fill="white" transform="translate(0 1)"/>
</clipPath>
</defs>
</svg>
