<svg width="66" height="54" viewBox="0 0 66 54" fill="none" xmlns="http://www.w3.org/2000/svg">
<g clip-path="url(#clip0_1_258)">
<g filter="url(#filter0_dii_1_258)">
<path d="M50.7119 1H14.0452C9.9951 1 6.71185 4.19797 6.71185 8.14286V43.8571C6.71185 47.802 9.9951 51 14.0452 51H50.7119C54.762 51 58.0452 47.802 58.0452 43.8571V8.14286C58.0452 4.19797 54.762 1 50.7119 1Z" fill="#2B2B2B"/>
</g>
</g>
<path d="M22.3281 18.5625V14.0156C24.4375 13.9219 25.9141 13.7812 26.7578 13.5938C28.1016 13.2969 29.1953 12.7031 30.0391 11.8125C30.6172 11.2031 31.0547 10.3906 31.3516 9.375C31.5234 8.76562 31.6094 8.3125 31.6094 8.01562H37.1641V42H30.3203V18.5625H22.3281Z" fill="white"/>
<defs>
<filter id="filter0_dii_1_258" x="2.71185" y="-2" width="59.3333" height="61" filterUnits="userSpaceOnUse" color-interpolation-filters="sRGB">
<feFlood flood-opacity="0" result="BackgroundImageFix"/>
<feColorMatrix in="SourceAlpha" type="matrix" values="0 0 0 0 0 0 0 0 0 0 0 0 0 0 0 0 0 0 127 0" result="hardAlpha"/>
<feOffset dy="4"/>
<feGaussianBlur stdDeviation="2"/>
<feComposite in2="hardAlpha" operator="out"/>
<feColorMatrix type="matrix" values="0 0 0 0 0 0 0 0 0 0 0 0 0 0 0 0 0 0 0.25 0"/>
<feBlend mode="normal" in2="BackgroundImageFix" result="effect1_dropShadow_1_258"/>
<feBlend mode="normal" in="SourceGraphic" in2="effect1_dropShadow_1_258" result="shape"/>
<feColorMatrix in="SourceAlpha" type="matrix" values="0 0 0 0 0 0 0 0 0 0 0 0 0 0 0 0 0 0 127 0" result="hardAlpha"/>
<feOffset dx="3" dy="-3"/>
<feGaussianBlur stdDeviation="2.4"/>
<feComposite in2="hardAlpha" operator="arithmetic" k2="-1" k3="1"/>
<feColorMatrix type="matrix" values="0 0 0 0 0 0 0 0 0 0 0 0 0 0 0 0 0 0 0.71 0"/>
<feBlend mode="normal" in2="shape" result="effect2_innerShadow_1_258"/>
<feColorMatrix in="SourceAlpha" type="matrix" values="0 0 0 0 0 0 0 0 0 0 0 0 0 0 0 0 0 0 127 0" result="hardAlpha"/>
<feOffset dx="-1" dy="2"/>
<feGaussianBlur stdDeviation="2"/>
<feComposite in2="hardAlpha" operator="arithmetic" k2="-1" k3="1"/>
<feColorMatrix type="matrix" values="0 0 0 0 1 0 0 0 0 1 0 0 0 0 1 0 0 0 0.25 0"/>
<feBlend mode="normal" in2="effect2_innerShadow_1_258" result="effect3_innerShadow_1_258"/>
</filter>
<clipPath id="clip0_1_258">
<rect width="66" height="50" fill="white" transform="translate(0 1)"/>
</clipPath>
</defs>
</svg>
