<svg width="66" height="54" viewBox="0 0 66 54" fill="none" xmlns="http://www.w3.org/2000/svg">
<g clip-path="url(#clip0_1_262)">
<g filter="url(#filter0_dii_1_262)">
<path d="M50.7119 1H14.0452C9.9951 1 6.71185 4.19797 6.71185 8.14286V43.8571C6.71185 47.802 9.9951 51 14.0452 51H50.7119C54.762 51 58.0452 47.802 58.0452 43.8571V8.14286C58.0452 4.19797 54.762 1 50.7119 1Z" fill="#2B2B2B"/>
</g>
</g>
<path d="M27.9219 32.9062C28.1875 34.3594 28.6953 35.4844 29.4453 36.2812C30.1953 37.0625 31.2891 37.4531 32.7266 37.4531C34.3828 37.4531 35.6406 36.875 36.5 35.7188C37.375 34.5469 37.8125 33.0781 37.8125 31.3125C37.8125 29.5781 37.4062 28.1172 36.5938 26.9297C35.7812 25.7266 34.5156 25.125 32.7969 25.125C31.9844 25.125 31.2812 25.2266 30.6875 25.4297C29.6406 25.8047 28.8516 26.5 28.3203 27.5156L22.3203 27.2344L24.7109 8.46094H43.4375V14.1328H29.5391L28.3203 21.5625C29.3516 20.8906 30.1562 20.4453 30.7344 20.2266C31.7031 19.8672 32.8828 19.6875 34.2734 19.6875C37.0859 19.6875 39.5391 20.6328 41.6328 22.5234C43.7266 24.4141 44.7734 27.1641 44.7734 30.7734C44.7734 33.9141 43.7656 36.7188 41.75 39.1875C39.7344 41.6562 36.7188 42.8906 32.7031 42.8906C29.4688 42.8906 26.8125 42.0234 24.7344 40.2891C22.6562 38.5547 21.5 36.0938 21.2656 32.9062H27.9219Z" fill="white"/>
<defs>
<filter id="filter0_dii_1_262" x="2.71185" y="-2" width="59.3333" height="61" filterUnits="userSpaceOnUse" color-interpolation-filters="sRGB">
<feFlood flood-opacity="0" result="BackgroundImageFix"/>
<feColorMatrix in="SourceAlpha" type="matrix" values="0 0 0 0 0 0 0 0 0 0 0 0 0 0 0 0 0 0 127 0" result="hardAlpha"/>
<feOffset dy="4"/>
<feGaussianBlur stdDeviation="2"/>
<feComposite in2="hardAlpha" operator="out"/>
<feColorMatrix type="matrix" values="0 0 0 0 0 0 0 0 0 0 0 0 0 0 0 0 0 0 0.25 0"/>
<feBlend mode="normal" in2="BackgroundImageFix" result="effect1_dropShadow_1_262"/>
<feBlend mode="normal" in="SourceGraphic" in2="effect1_dropShadow_1_262" result="shape"/>
<feColorMatrix in="SourceAlpha" type="matrix" values="0 0 0 0 0 0 0 0 0 0 0 0 0 0 0 0 0 0 127 0" result="hardAlpha"/>
<feOffset dx="3" dy="-3"/>
<feGaussianBlur stdDeviation="2.4"/>
<feComposite in2="hardAlpha" operator="arithmetic" k2="-1" k3="1"/>
<feColorMatrix type="matrix" values="0 0 0 0 0 0 0 0 0 0 0 0 0 0 0 0 0 0 0.71 0"/>
<feBlend mode="normal" in2="shape" result="effect2_innerShadow_1_262"/>
<feColorMatrix in="SourceAlpha" type="matrix" values="0 0 0 0 0 0 0 0 0 0 0 0 0 0 0 0 0 0 127 0" result="hardAlpha"/>
<feOffset dx="-1" dy="2"/>
<feGaussianBlur stdDeviation="2"/>
<feComposite in2="hardAlpha" operator="arithmetic" k2="-1" k3="1"/>
<feColorMatrix type="matrix" values="0 0 0 0 1 0 0 0 0 1 0 0 0 0 1 0 0 0 0.25 0"/>
<feBlend mode="normal" in2="effect2_innerShadow_1_262" result="effect3_innerShadow_1_262"/>
</filter>
<clipPath id="clip0_1_262">
<rect width="66" height="50" fill="white" transform="translate(0 1)"/>
</clipPath>
</defs>
</svg>
