<svg width="66" height="54" viewBox="0 0 66 54" fill="none" xmlns="http://www.w3.org/2000/svg">
<g clip-path="url(#clip0_1_263)">
<g filter="url(#filter0_dii_1_263)">
<path d="M50.7119 1H14.0452C9.9951 1 6.71185 4.19797 6.71185 8.14286V43.8571C6.71185 47.802 9.9951 51 14.0452 51H50.7119C54.762 51 58.0452 47.802 58.0452 43.8571V8.14286C58.0452 4.19797 54.762 1 50.7119 1Z" fill="#2B2B2B"/>
</g>
</g>
<path d="M28.2031 31.2422C28.2031 33.0703 28.6953 34.5625 29.6797 35.7188C30.6641 36.875 31.9141 37.4531 33.4297 37.4531C34.9141 37.4531 36.0781 36.8984 36.9219 35.7891C37.7812 34.6641 38.2109 33.2109 38.2109 31.4297C38.2109 29.4453 37.7266 27.9297 36.7578 26.8828C35.7891 25.8203 34.6016 25.2891 33.1953 25.2891C32.0547 25.2891 31.0469 25.6328 30.1719 26.3203C28.8594 27.3359 28.2031 28.9766 28.2031 31.2422ZM37.6016 16.5703C37.6016 16.0234 37.3906 15.4219 36.9688 14.7656C36.25 13.7031 35.1641 13.1719 33.7109 13.1719C31.5391 13.1719 29.9922 14.3906 29.0703 16.8281C28.5703 18.1719 28.2266 20.1562 28.0391 22.7812C28.8672 21.7969 29.8281 21.0781 30.9219 20.625C32.0156 20.1719 33.2656 19.9453 34.6719 19.9453C37.6875 19.9453 40.1562 20.9688 42.0781 23.0156C44.0156 25.0625 44.9844 27.6797 44.9844 30.8672C44.9844 34.0391 44.0391 36.8359 42.1484 39.2578C40.2578 41.6797 37.3203 42.8906 33.3359 42.8906C29.0547 42.8906 25.8984 41.1016 23.8672 37.5234C22.2891 34.7266 21.5 31.1172 21.5 26.6953C21.5 24.1016 21.6094 21.9922 21.8281 20.3672C22.2188 17.4766 22.9766 15.0703 24.1016 13.1484C25.0703 11.5078 26.3359 10.1875 27.8984 9.1875C29.4766 8.1875 31.3594 7.6875 33.5469 7.6875C36.7031 7.6875 39.2188 8.5 41.0938 10.125C42.9688 11.7344 44.0234 13.8828 44.2578 16.5703H37.6016Z" fill="white"/>
<defs>
<filter id="filter0_dii_1_263" x="2.71185" y="-2" width="59.3333" height="61" filterUnits="userSpaceOnUse" color-interpolation-filters="sRGB">
<feFlood flood-opacity="0" result="BackgroundImageFix"/>
<feColorMatrix in="SourceAlpha" type="matrix" values="0 0 0 0 0 0 0 0 0 0 0 0 0 0 0 0 0 0 127 0" result="hardAlpha"/>
<feOffset dy="4"/>
<feGaussianBlur stdDeviation="2"/>
<feComposite in2="hardAlpha" operator="out"/>
<feColorMatrix type="matrix" values="0 0 0 0 0 0 0 0 0 0 0 0 0 0 0 0 0 0 0.25 0"/>
<feBlend mode="normal" in2="BackgroundImageFix" result="effect1_dropShadow_1_263"/>
<feBlend mode="normal" in="SourceGraphic" in2="effect1_dropShadow_1_263" result="shape"/>
<feColorMatrix in="SourceAlpha" type="matrix" values="0 0 0 0 0 0 0 0 0 0 0 0 0 0 0 0 0 0 127 0" result="hardAlpha"/>
<feOffset dx="3" dy="-3"/>
<feGaussianBlur stdDeviation="2.4"/>
<feComposite in2="hardAlpha" operator="arithmetic" k2="-1" k3="1"/>
<feColorMatrix type="matrix" values="0 0 0 0 0 0 0 0 0 0 0 0 0 0 0 0 0 0 0.71 0"/>
<feBlend mode="normal" in2="shape" result="effect2_innerShadow_1_263"/>
<feColorMatrix in="SourceAlpha" type="matrix" values="0 0 0 0 0 0 0 0 0 0 0 0 0 0 0 0 0 0 127 0" result="hardAlpha"/>
<feOffset dx="-1" dy="2"/>
<feGaussianBlur stdDeviation="2"/>
<feComposite in2="hardAlpha" operator="arithmetic" k2="-1" k3="1"/>
<feColorMatrix type="matrix" values="0 0 0 0 1 0 0 0 0 1 0 0 0 0 1 0 0 0 0.25 0"/>
<feBlend mode="normal" in2="effect2_innerShadow_1_263" result="effect3_innerShadow_1_263"/>
</filter>
<clipPath id="clip0_1_263">
<rect width="66" height="50" fill="white" transform="translate(0 1)"/>
</clipPath>
</defs>
</svg>
