<svg width="66" height="54" viewBox="0 0 66 54" fill="none" xmlns="http://www.w3.org/2000/svg">
<g clip-path="url(#clip0_1_267)">
<g filter="url(#filter0_dii_1_267)">
<path d="M50.7119 4H14.0452C9.9951 4 6.71185 7.19797 6.71185 11.1429V46.8571C6.71185 50.802 9.9951 54 14.0452 54H50.7119C54.762 54 58.0452 50.802 58.0452 46.8571V11.1429C58.0452 7.19797 54.762 4 50.7119 4Z" fill="#2B2B2B"/>
</g>
</g>
<path d="M37.375 25.6172C37.25 24.6641 36.9297 23.8047 36.4141 23.0391C35.6641 22.0078 34.5 21.4922 32.9219 21.4922C30.6719 21.4922 29.1328 22.6094 28.3047 24.8438C27.8672 26.0312 27.6484 27.6094 27.6484 29.5781C27.6484 31.4531 27.8672 32.9609 28.3047 34.1016C29.1016 36.2266 30.6016 37.2891 32.8047 37.2891C34.3672 37.2891 35.4766 36.8672 36.1328 36.0234C36.7891 35.1797 37.1875 34.0859 37.3281 32.7422H44.1484C43.9922 34.7734 43.2578 36.6953 41.9453 38.5078C39.8516 41.4297 36.75 42.8906 32.6406 42.8906C28.5312 42.8906 25.5078 41.6719 23.5703 39.2344C21.6328 36.7969 20.6641 33.6328 20.6641 29.7422C20.6641 25.3516 21.7344 21.9375 23.875 19.5C26.0156 17.0625 28.9688 15.8438 32.7344 15.8438C35.9375 15.8438 38.5547 16.5625 40.5859 18C42.6328 19.4375 43.8438 21.9766 44.2188 25.6172H37.375Z" fill="white"/>
<defs>
<filter id="filter0_dii_1_267" x="2.71185" y="1" width="59.3333" height="61" filterUnits="userSpaceOnUse" color-interpolation-filters="sRGB">
<feFlood flood-opacity="0" result="BackgroundImageFix"/>
<feColorMatrix in="SourceAlpha" type="matrix" values="0 0 0 0 0 0 0 0 0 0 0 0 0 0 0 0 0 0 127 0" result="hardAlpha"/>
<feOffset dy="4"/>
<feGaussianBlur stdDeviation="2"/>
<feComposite in2="hardAlpha" operator="out"/>
<feColorMatrix type="matrix" values="0 0 0 0 0 0 0 0 0 0 0 0 0 0 0 0 0 0 0.25 0"/>
<feBlend mode="normal" in2="BackgroundImageFix" result="effect1_dropShadow_1_267"/>
<feBlend mode="normal" in="SourceGraphic" in2="effect1_dropShadow_1_267" result="shape"/>
<feColorMatrix in="SourceAlpha" type="matrix" values="0 0 0 0 0 0 0 0 0 0 0 0 0 0 0 0 0 0 127 0" result="hardAlpha"/>
<feOffset dx="3" dy="-3"/>
<feGaussianBlur stdDeviation="2.4"/>
<feComposite in2="hardAlpha" operator="arithmetic" k2="-1" k3="1"/>
<feColorMatrix type="matrix" values="0 0 0 0 0 0 0 0 0 0 0 0 0 0 0 0 0 0 0.71 0"/>
<feBlend mode="normal" in2="shape" result="effect2_innerShadow_1_267"/>
<feColorMatrix in="SourceAlpha" type="matrix" values="0 0 0 0 0 0 0 0 0 0 0 0 0 0 0 0 0 0 127 0" result="hardAlpha"/>
<feOffset dx="-1" dy="2"/>
<feGaussianBlur stdDeviation="2"/>
<feComposite in2="hardAlpha" operator="arithmetic" k2="-1" k3="1"/>
<feColorMatrix type="matrix" values="0 0 0 0 1 0 0 0 0 1 0 0 0 0 1 0 0 0 0.25 0"/>
<feBlend mode="normal" in2="effect2_innerShadow_1_267" result="effect3_innerShadow_1_267"/>
</filter>
<clipPath id="clip0_1_267">
<rect width="66" height="50" fill="white" transform="translate(0 4)"/>
</clipPath>
</defs>
</svg>
