<svg width="181" height="58" viewBox="0 0 181 58" fill="none" xmlns="http://www.w3.org/2000/svg">
<g filter="url(#filter0_dii_1_270)">
<path d="M139.073 0H38.5179C27.4109 0 18.4068 3.19797 18.4068 7.14286V42.8571C18.4068 46.802 27.4109 50 38.5179 50H139.073C150.181 50 159.185 46.802 159.185 42.8571V7.14286C159.185 3.19797 150.181 0 139.073 0Z" fill="#2B2B2B"/>
</g>
<path d="M46.4414 27.668C46.5508 28.457 46.7656 29.0469 47.0859 29.4375C47.6719 30.1484 48.6758 30.5039 50.0977 30.5039C50.9492 30.5039 51.6406 30.4102 52.1719 30.2227C53.1797 29.8633 53.6836 29.1953 53.6836 28.2188C53.6836 27.6484 53.4336 27.207 52.9336 26.8945C52.4336 26.5898 51.6484 26.3203 50.5781 26.0859L48.75 25.6758C46.9531 25.2695 45.7109 24.8281 45.0234 24.3516C43.8594 23.5547 43.2773 22.3086 43.2773 20.6133C43.2773 19.0664 43.8398 17.7812 44.9648 16.7578C46.0898 15.7344 47.7422 15.2227 49.9219 15.2227C51.7422 15.2227 53.293 15.707 54.5742 16.6758C55.8633 17.6367 56.5391 19.0352 56.6016 20.8711H53.1328C53.0703 19.832 52.6172 19.0938 51.7734 18.6562C51.2109 18.3672 50.5117 18.2227 49.6758 18.2227C48.7461 18.2227 48.0039 18.4102 47.4492 18.7852C46.8945 19.1602 46.6172 19.6836 46.6172 20.3555C46.6172 20.9727 46.8906 21.4336 47.4375 21.7383C47.7891 21.9414 48.5391 22.1797 49.6875 22.4531L52.6641 23.168C53.9688 23.4805 54.9531 23.8984 55.6172 24.4219C56.6484 25.2344 57.1641 26.4102 57.1641 27.9492C57.1641 29.5273 56.5586 30.8398 55.3477 31.8867C54.1445 32.9258 52.4414 33.4453 50.2383 33.4453C47.9883 33.4453 46.2188 32.9336 44.9297 31.9102C43.6406 30.8789 42.9961 29.4648 42.9961 27.668H46.4414ZM59.8359 15.7266H63.5039V26.3438C63.5039 27.5312 63.6445 28.3984 63.9258 28.9453C64.3633 29.9141 65.3164 30.3984 66.7852 30.3984C68.2461 30.3984 69.1953 29.9141 69.6328 28.9453C69.9141 28.3984 70.0547 27.5312 70.0547 26.3438V15.7266H73.7227V26.3438C73.7227 28.1797 73.4375 29.6094 72.8672 30.6328C71.8047 32.5078 69.7773 33.4453 66.7852 33.4453C63.793 33.4453 61.7617 32.5078 60.6914 30.6328C60.1211 29.6094 59.8359 28.1797 59.8359 26.3438V15.7266ZM80.6836 18.7266V22.5352H84.9258C85.6836 22.5352 86.2969 22.3945 86.7656 22.1133C87.2422 21.8242 87.4805 21.3164 87.4805 20.5898C87.4805 19.7852 87.168 19.2539 86.543 18.9961C86.0039 18.8164 85.3164 18.7266 84.4805 18.7266H80.6836ZM80.6836 25.3945V30H84.9258C85.6836 30 86.2734 29.8984 86.6953 29.6953C87.4609 29.3203 87.8438 28.6016 87.8438 27.5391C87.8438 26.6406 87.4727 26.0234 86.7305 25.6875C86.3164 25.5 85.7344 25.4023 84.9844 25.3945H80.6836ZM85.6289 15.7266C87.7461 15.7578 89.2461 16.3711 90.1289 17.5664C90.6602 18.3008 90.9258 19.1797 90.9258 20.2031C90.9258 21.2578 90.6602 22.1055 90.1289 22.7461C89.832 23.1055 89.3945 23.4336 88.8164 23.7305C89.6992 24.0508 90.3633 24.5586 90.8086 25.2539C91.2617 25.9492 91.4883 26.793 91.4883 27.7852C91.4883 28.8086 91.2305 29.7266 90.7148 30.5391C90.3867 31.0781 89.9766 31.5312 89.4844 31.8984C88.9297 32.3203 88.2734 32.6094 87.5156 32.7656C86.7656 32.9219 85.9492 33 85.0664 33H77.2383V15.7266H85.6289ZM105.973 15.7266H111.164V33H107.801V21.3164C107.801 20.9805 107.805 20.5117 107.812 19.9102C107.82 19.3008 107.824 18.832 107.824 18.5039L104.555 33H101.051L97.8047 18.5039C97.8047 18.832 97.8086 19.3008 97.8164 19.9102C97.8242 20.5117 97.8281 20.9805 97.8281 21.3164V33H94.4648V15.7266H99.7148L102.855 29.3086L105.973 15.7266ZM117.82 33H114.234V15.7266H117.82V33ZM133.746 15.7266V18.7852H128.578V33H124.945V18.7852H119.754V15.7266H133.746Z" fill="white"/>
<defs>
<filter id="filter0_dii_1_270" x="14.4068" y="-3" width="148.778" height="61" filterUnits="userSpaceOnUse" color-interpolation-filters="sRGB">
<feFlood flood-opacity="0" result="BackgroundImageFix"/>
<feColorMatrix in="SourceAlpha" type="matrix" values="0 0 0 0 0 0 0 0 0 0 0 0 0 0 0 0 0 0 127 0" result="hardAlpha"/>
<feOffset dy="4"/>
<feGaussianBlur stdDeviation="2"/>
<feComposite in2="hardAlpha" operator="out"/>
<feColorMatrix type="matrix" values="0 0 0 0 0 0 0 0 0 0 0 0 0 0 0 0 0 0 0.25 0"/>
<feBlend mode="normal" in2="BackgroundImageFix" result="effect1_dropShadow_1_270"/>
<feBlend mode="normal" in="SourceGraphic" in2="effect1_dropShadow_1_270" result="shape"/>
<feColorMatrix in="SourceAlpha" type="matrix" values="0 0 0 0 0 0 0 0 0 0 0 0 0 0 0 0 0 0 127 0" result="hardAlpha"/>
<feOffset dx="3" dy="-3"/>
<feGaussianBlur stdDeviation="2.4"/>
<feComposite in2="hardAlpha" operator="arithmetic" k2="-1" k3="1"/>
<feColorMatrix type="matrix" values="0 0 0 0 0 0 0 0 0 0 0 0 0 0 0 0 0 0 0.71 0"/>
<feBlend mode="normal" in2="shape" result="effect2_innerShadow_1_270"/>
<feColorMatrix in="SourceAlpha" type="matrix" values="0 0 0 0 0 0 0 0 0 0 0 0 0 0 0 0 0 0 127 0" result="hardAlpha"/>
<feOffset dx="-1" dy="2"/>
<feGaussianBlur stdDeviation="2"/>
<feComposite in2="hardAlpha" operator="arithmetic" k2="-1" k3="1"/>
<feColorMatrix type="matrix" values="0 0 0 0 1 0 0 0 0 1 0 0 0 0 1 0 0 0 0.25 0"/>
<feBlend mode="normal" in2="effect2_innerShadow_1_270" result="effect3_innerShadow_1_270"/>
</filter>
</defs>
</svg>
